<mxfile host="app.diagrams.net" agent="Mozilla/5.0 (Windows NT 10.0; Win64; x64) AppleWebKit/537.36 (KHTML, like Gecko) Chrome/127.0.0.0 Safari/537.36" version="24.7.7">
  <diagram name="PÃ¡gina-1" id="QnUFBX8l_EO1cEDR6UmA">
    <mxGraphModel dx="1050" dy="565" grid="1" gridSize="10" guides="1" tooltips="1" connect="1" arrows="1" fold="1" page="1" pageScale="1" pageWidth="827" pageHeight="1169" math="0" shadow="0">
      <root>
        <mxCell id="0" />
        <mxCell id="1" parent="0" />
        <mxCell id="uhywGu7XQp75MZwSBE-L-2" value="Trabalho" style="rounded=0;whiteSpace=wrap;html=1;" vertex="1" parent="1">
          <mxGeometry x="580" y="160" width="140" height="70" as="geometry" />
        </mxCell>
        <mxCell id="uhywGu7XQp75MZwSBE-L-3" value="Realiza" style="strokeWidth=2;html=1;shape=mxgraph.flowchart.decision;whiteSpace=wrap;" vertex="1" parent="1">
          <mxGeometry x="360" y="160" width="130" height="80" as="geometry" />
        </mxCell>
        <mxCell id="uhywGu7XQp75MZwSBE-L-4" value="Aluno" style="rounded=0;whiteSpace=wrap;html=1;" vertex="1" parent="1">
          <mxGeometry x="130" y="160" width="140" height="70" as="geometry" />
        </mxCell>
        <mxCell id="uhywGu7XQp75MZwSBE-L-6" value="" style="endArrow=none;html=1;rounded=0;" edge="1" parent="1">
          <mxGeometry width="50" height="50" relative="1" as="geometry">
            <mxPoint x="270" y="199.5" as="sourcePoint" />
            <mxPoint x="360" y="199.5" as="targetPoint" />
          </mxGeometry>
        </mxCell>
        <mxCell id="uhywGu7XQp75MZwSBE-L-8" value="" style="endArrow=none;html=1;rounded=0;" edge="1" parent="1">
          <mxGeometry width="50" height="50" relative="1" as="geometry">
            <mxPoint x="490" y="199.5" as="sourcePoint" />
            <mxPoint x="580" y="199.5" as="targetPoint" />
          </mxGeometry>
        </mxCell>
        <mxCell id="uhywGu7XQp75MZwSBE-L-10" value="(1,n)" style="text;html=1;align=center;verticalAlign=middle;whiteSpace=wrap;rounded=0;strokeWidth=1;" vertex="1" parent="1">
          <mxGeometry x="260" y="170" width="60" height="30" as="geometry" />
        </mxCell>
        <mxCell id="uhywGu7XQp75MZwSBE-L-14" value="(1,n)" style="text;html=1;align=center;verticalAlign=middle;whiteSpace=wrap;rounded=0;strokeWidth=1;" vertex="1" parent="1">
          <mxGeometry x="530" y="170" width="60" height="30" as="geometry" />
        </mxCell>
      </root>
    </mxGraphModel>
  </diagram>
</mxfile>
